<svg width="22" height="13" viewBox="0 0 22 13" fill="none" xmlns="http://www.w3.org/2000/svg">
<path d="M0.5 6.37496C0.499678 6.20578 0.536915 6.03863 0.609028 5.88559C0.681141 5.73255 0.786328 5.59742 0.917 5.48996L5.336 1.07996C5.54694 0.869284 5.83287 0.750949 6.131 0.750949C6.42913 0.750949 6.71506 0.869284 6.926 1.07996C7.03023 1.18415 7.1129 1.30786 7.16931 1.44401C7.22572 1.58016 7.25475 1.72609 7.25475 1.87346C7.25475 2.02083 7.22572 2.16676 7.16931 2.30291C7.1129 2.43906 7.03023 2.56277 6.926 2.66696L4.349 5.24996L20.375 5.24996C20.6734 5.24996 20.9595 5.36849 21.1705 5.57947C21.3815 5.79044 21.5 6.07659 21.5 6.37496C21.5 6.67333 21.3815 6.95948 21.1705 7.17046C20.9595 7.38143 20.6734 7.49996 20.375 7.49996L4.334 7.49996L6.9335 10.083C7.03795 10.1872 7.12082 10.311 7.17736 10.4473C7.2339 10.5836 7.263 10.7297 7.263 10.8772C7.263 11.0248 7.2339 11.1709 7.17736 11.3072C7.12082 11.4434 7.03795 11.5672 6.9335 11.6715C6.82902 11.776 6.70497 11.8589 6.56844 11.9155C6.4319 11.9721 6.28555 12.0012 6.13775 12.0012C5.98995 12.0012 5.8436 11.9721 5.70706 11.9155C5.57053 11.8589 5.44647 11.776 5.342 11.6715L0.829998 7.16546C0.72469 7.06264 0.641192 6.93964 0.584492 6.80382C0.527792 6.668 0.499056 6.52214 0.5 6.37496Z" fill="#C9DCEC"/>
</svg>
