<svg width="22" height="13" viewBox="0 0 22 13" fill="none" xmlns="http://www.w3.org/2000/svg">
<path d="M21.5 6.37496C21.5003 6.20578 21.4631 6.03863 21.391 5.88559C21.3189 5.73255 21.2137 5.59742 21.083 5.48996L16.664 1.07996C16.4531 0.869285 16.1671 0.75095 15.869 0.75095C15.5709 0.75095 15.2849 0.869285 15.074 1.07996C14.9698 1.18415 14.8871 1.30786 14.8307 1.44401C14.7743 1.58016 14.7452 1.72609 14.7452 1.87346C14.7452 2.02083 14.7743 2.16676 14.8307 2.30291C14.8871 2.43906 14.9698 2.56277 15.074 2.66696L17.651 5.24996L1.625 5.24996C1.32663 5.24996 1.04048 5.36849 0.829504 5.57947C0.618526 5.79045 0.5 6.07659 0.5 6.37496C0.5 6.67333 0.618526 6.95948 0.829505 7.17046C1.04048 7.38143 1.32663 7.49996 1.625 7.49996L17.666 7.49996L15.0665 10.083C14.9621 10.1872 14.8792 10.311 14.8226 10.4473C14.7661 10.5836 14.737 10.7297 14.737 10.8772C14.737 11.0248 14.7661 11.1709 14.8226 11.3072C14.8792 11.4434 14.9621 11.5672 15.0665 11.6715C15.171 11.776 15.295 11.8589 15.4316 11.9155C15.5681 11.9721 15.7145 12.0012 15.8622 12.0012C16.01 12.0012 16.1564 11.9721 16.2929 11.9155C16.4295 11.8589 16.5535 11.776 16.658 11.6715L21.17 7.16546C21.2753 7.06264 21.3588 6.93964 21.4155 6.80382C21.4722 6.668 21.5009 6.52214 21.5 6.37496V6.37496Z" fill="#002B4E"/>
</svg>
